<svg xmlns="http://www.w3.org/2000/svg" viewBox="0 0 512 512" role="img" aria-label="アゲテナ">
  <defs>
    <linearGradient id="bg" x1="92" y1="48" x2="430" y2="474" gradientUnits="userSpaceOnUse">
      <stop offset="0" stop-color="#fbfbfd"/>
      <stop offset="0.52" stop-color="#f1f3ef"/>
      <stop offset="1" stop-color="#e7ece1"/>
    </linearGradient>
    <linearGradient id="card" x1="140" y1="104" x2="366" y2="404" gradientUnits="userSpaceOnUse">
      <stop offset="0" stop-color="#ffffff"/>
      <stop offset="1" stop-color="#f8f8fa"/>
    </linearGradient>
    <linearGradient id="sage" x1="310" y1="300" x2="420" y2="418" gradientUnits="userSpaceOnUse">
      <stop offset="0" stop-color="#8d9d7d"/>
      <stop offset="1" stop-color="#5f7152"/>
    </linearGradient>
  </defs>

  <rect x="32" y="32" width="448" height="448" rx="112" fill="url(#bg)"/>
  <rect x="32.5" y="32.5" width="447" height="447" rx="111.5" fill="none" stroke="rgba(60,60,67,0.08)"/>
  <path d="M116 52c-38 17-64 55-64 99v210c0 55 44 99 99 99h210c44 0 82-26 99-64-63 38-136 59-214 59-76 0-147-20-209-56V151c0-44 26-82 79-99z" fill="#ffffff" opacity=".34"/>

  <rect x="118" y="82" width="276" height="340" rx="54" fill="#d8ddd3" opacity=".28"/>
  <rect x="108" y="72" width="276" height="340" rx="54" fill="url(#card)" stroke="#dfdfe5" stroke-width="7"/>
  <rect x="140" y="124" width="212" height="54" rx="20" fill="#f1f1f4"/>
  <rect x="166" y="144" width="38" height="14" rx="7" fill="#778868"/>
  <rect x="220" y="144" width="100" height="14" rx="7" fill="#c7c7cc"/>

  <rect x="148" y="218" width="42" height="42" rx="14" fill="#eef2ea"/>
  <rect x="206" y="218" width="42" height="42" rx="14" fill="#f3f3f6"/>
  <rect x="264" y="218" width="42" height="42" rx="14" fill="#f3f3f6"/>
  <rect x="148" y="276" width="42" height="42" rx="14" fill="#f3f3f6"/>
  <rect x="206" y="276" width="42" height="42" rx="14" fill="#eef2ea"/>
  <rect x="264" y="276" width="42" height="42" rx="14" fill="#f3f3f6"/>
  <rect x="148" y="334" width="42" height="42" rx="14" fill="#f3f3f6"/>
  <rect x="206" y="334" width="42" height="42" rx="14" fill="#f3f3f6"/>

  <circle cx="358" cy="360" r="78" fill="#ffffff" opacity=".9"/>
  <circle cx="358" cy="360" r="68" fill="url(#sage)"/>
  <path d="M326 361l22 23 43-50" fill="none" stroke="#ffffff" stroke-width="18" stroke-linecap="round" stroke-linejoin="round"/>
  <path d="M319 318c14-15 33-23 56-22" fill="none" stroke="#ffffff" stroke-width="7" stroke-linecap="round" opacity=".22"/>
</svg>
