<svg xmlns="http://www.w3.org/2000/svg" viewBox="0 0 512 512" role="img" aria-label="登記完了予定日">
  <defs>
    <linearGradient id="bg" x1="96" y1="60" x2="416" y2="456" gradientUnits="userSpaceOnUse">
      <stop offset="0" stop-color="#b9dd67"/>
      <stop offset="0.58" stop-color="#9eca45"/>
      <stop offset="1" stop-color="#678a36"/>
    </linearGradient>
    <radialGradient id="glow" cx="35%" cy="22%" r="65%">
      <stop offset="0" stop-color="#ffffff" stop-opacity="0.45"/>
      <stop offset="1" stop-color="#ffffff" stop-opacity="0"/>
    </radialGradient>
    <filter id="softShadow" x="-20%" y="-20%" width="140%" height="140%">
      <feDropShadow dx="0" dy="16" stdDeviation="16" flood-color="#2e4d1b" flood-opacity="0.22"/>
    </filter>
  </defs>
  <rect x="48" y="48" width="416" height="416" rx="104" fill="url(#bg)"/>
  <rect x="48" y="48" width="416" height="416" rx="104" fill="url(#glow)"/>
  <g filter="url(#softShadow)" fill="none" stroke="#ffffff" stroke-linecap="round" stroke-linejoin="round">
    <path d="M174 310c36-58 72-102 82-188 10 86 46 130 82 188" stroke-width="38"/>
    <path d="M256 122v252" stroke-width="38"/>
    <path d="M176 324l54 54 112-132" stroke-width="44"/>
  </g>
  <g fill="none" stroke="#eaf5d4" stroke-linecap="round" opacity="0.9">
    <path d="M172 174c-22 14-40 34-52 58" stroke-width="22"/>
    <path d="M340 174c22 14 40 34 52 58" stroke-width="22"/>
  </g>
</svg>
