<svg xmlns="http://www.w3.org/2000/svg" viewBox="0 0 64 64">
  <defs>
    <linearGradient id="bg" x1="8" y1="6" x2="56" y2="58" gradientUnits="userSpaceOnUse">
      <stop stop-color="#17243f"/>
      <stop offset="1" stop-color="#08101f"/>
    </linearGradient>
    <linearGradient id="electric" x1="12" y1="13" x2="53" y2="50" gradientUnits="userSpaceOnUse">
      <stop stop-color="#8ef7ff"/>
      <stop offset="1" stop-color="#25b9ff"/>
    </linearGradient>
  </defs>
  <rect x="2" y="2" width="60" height="60" rx="15" fill="url(#bg)"/>
  <path d="M18 14h21l9 9v24a4 4 0 0 1-4 4H18a4 4 0 0 1-4-4V18a4 4 0 0 1 4-4Z" fill="#fff" fill-opacity=".1" stroke="url(#electric)" stroke-width="3"/>
  <path d="M39 14v9h9" fill="none" stroke="url(#electric)" stroke-width="3" stroke-linejoin="round"/>
  <path d="M20 39c5-9 6 5 11-4 3-5 3 7 11 1" fill="none" stroke="#fff" stroke-width="3.2" stroke-linecap="round" stroke-linejoin="round"/>
  <path d="M19 46h24" stroke="#fff" stroke-opacity=".48" stroke-width="2.5" stroke-linecap="round"/>
  <circle cx="14" cy="27" r="3" fill="#8ef7ff"/>
  <circle cx="50" cy="34" r="3" fill="#25b9ff"/>
  <path d="M14 27h7l3-5 5 10 4-7 4 9h13" fill="none" stroke="url(#electric)" stroke-width="2.5" stroke-linecap="round" stroke-linejoin="round"/>
</svg>
